ModelForces
version=1
nRows=4
nColumns=94
inDegrees=yes

This file contains the forces exerted on a model during a simulation.

A force is a generalized force, meaning that it can be either a force (N) or a torque (Nm).

Units are S.I. units (second, meters, Newtons, ...)
Angles are in degrees.

endheader 
time	addbrev_l	addlong_l	addmagDist_l	addmagIsch_l	addmagMid_l	addmagProx_l	bflh_l	bfsh_l	edl_l	ehl_l	fdl_l	fhl_l	gaslat_l	gasmed_l	glmax1_l	glmax2_l	glmax3_l	glmed1_l	glmed2_l	glmed3_l	glmin1_l	glmin2_l	glmin3_l	grac_l	iliacus_l	perbrev_l	perlong_l	piri_l	psoas_l	recfem_l	sart_l	semimem_l	semiten_l	soleus_l	tfl_l	tibant_l	tibpost_l	vasint_l	vaslat_l	vasmed_l	addbrev_r	addlong_r	addmagDist_r	addmagIsch_r	addmagMid_r	addmagProx_r	bflh_r	bfsh_r	edl_r	ehl_r	fdl_r	fhl_r	gaslat_r	gasmed_r	glmax1_r	glmax2_r	glmax3_r	glmed1_r	glmed2_r	glmed3_r	glmin1_r	glmin2_r	glmin3_r	grac_r	iliacus_r	perbrev_r	perlong_r	piri_r	psoas_r	recfem_r	sart_r	semimem_r	semiten_r	soleus_r	tfl_r	tibant_r	tibpost_r	vasint_r	vaslat_r	vasmed_r	lumbar_extension	lumbar_bending	lumbar_rotation	arm_flex_l	arm_add_l	arm_rot_l	arm_flex_r	arm_add_r	arm_rot_r	elbow_flex_l	elbow_flex_r	pro_sup_l	pro_sup_r	
          5.20000000	         17.00111312	         72.26179193	          5.89198705	          0.05163001	          4.49851913	         94.83084651	         45.47980286	         57.77842796	         78.90345663	         30.15555639	         63.19496277	        216.16693769	        317.71856151	        653.24875886	        145.73075351	         18.78989621	         20.42680244	        185.57492464	        316.90233924	        397.27708343	          9.65224082	         14.43220091	          1.75530257	         21.22316658	         73.36828178	          7.13246673	         16.40959721	         18.34920564	        355.85349005	        642.82281220	         57.68585236	         53.35640299	         24.08691603	       2684.44857063	          1.09442295	        211.18056888	        497.93215763	        534.51154234	       3672.33911636	       1268.39380329	          8.06362107	         14.45148172	          4.20750843	          2.36432312	          6.04214297	          7.07988161	         42.36999591	        115.65628675	         52.40506227	         14.80172923	          6.28632926	         10.22444361	         23.86967904	        143.91923440	         82.01856430	        183.65168860	          3.59354159	         16.08625648	         65.48860532	         72.34738672	          3.01632831	          8.00633505	          0.13365736	          4.29067326	         53.27933688	          5.61407292	         55.39197274	          0.02343954	         85.43653004	        116.90907816	         91.22310066	         80.16185034	         12.53234848	          0.32173900	          6.00802093	         81.96168212	         46.85108539	          7.93024177	         25.30090221	         13.10905262	        -38.50260938	        -14.25493646	          8.41831584	         37.42337816	         -6.76628690	        -47.70386982	          3.01491750	          1.61189813	        -17.99448261	         52.97103974	        -18.61306666	         -2.71922647	          0.48740669	
          5.21000000	         31.97294944	         68.67002826	          4.44891623	        193.23133868	          4.87579486	         77.93768674	        160.42553905	         47.50024582	         66.98572355	         17.54091632	         80.44373798	        278.28416009	        260.59380882	        609.11167281	        122.39718373	         17.34329849	         16.46394711	        171.76084413	        275.25183876	        338.09187391	          8.51906234	         12.96561146	          1.73471436	         18.45181203	         64.72892383	          5.43009970	         12.34668536	         20.43380196	        300.01146737	        467.39417624	         47.64846917	          0.06642361	         11.97374024	       3363.12978283	          0.97698777	        313.95435322	        611.53930760	        768.23423279	       4964.15280475	       1527.64739779	          7.90762853	         13.86398317	          3.49625193	          1.56666845	          5.60604524	          7.07009890	         22.83457150	        140.74410786	         50.82448844	         13.80358395	          5.95278275	          9.97316569	         19.80479254	        152.97140607	        106.83272958	        228.13739408	          2.19775749	         71.23126580	         32.57071893	         56.76095947	          4.55459813	         14.57883469	          0.02480047	          3.44974212	         45.41737668	         11.32993716	         54.13098611	          0.00568948	         71.13583666	        125.27064416	        134.60506346	        206.77922401	          8.84607040	          0.25320608	         15.02383624	         87.57082203	         39.23716873	          7.61332568	         24.45687447	         12.70644393	        -17.02438036	         27.33368125	          4.66052875	         67.22354276	         32.21951203	        -64.36101312	        -41.02662474	         38.39964417	         16.67331386	         23.46237489	          6.42621164	         -1.16490109	          1.15520134	
          5.22000000	         25.67447983	         52.13505666	        150.23990407	        156.93960744	         91.81138839	         60.74536346	          0.03569360	         39.83825959	         54.95848949	         16.87349874	         92.87543461	        316.33641217	        194.02284751	        481.29241161	        101.86973395	         19.50059796	         11.30614459	        146.79625212	        232.67189896	        285.23797826	          6.95019165	         12.14900430	          1.96734155	         14.80145277	         60.77722262	          4.36633229	          9.78653901	         21.84305626	        268.20726558	        478.19321199	         42.71222320	        390.48464645	         63.74847981	       3461.84716635	          1.52809848	        355.96887211	        693.29546390	        848.32051287	       5701.91237080	       1564.10408301	          7.74817466	         13.50735660	          3.05066083	          1.04647334	          5.44321030	          7.19468453	         12.59434481	        188.78297402	         47.86372196	         12.80980593	          5.74192487	          9.47752735	         13.72907709	        128.97704977	        123.19256562	        185.93451898	          3.70085764	         52.28569819	        136.19502065	         97.11934534	          4.17911131	         23.55328773	          0.00047885	          2.83621011	         37.81486527	          9.15718721	         54.76427930	          0.00279814	         58.39954754	        119.82511520	        156.37172453	        101.71513205	          7.14519518	          0.18717108	         28.84190092	         85.84787731	         31.96048502	          7.68615162	         24.67033721	         12.82355112	         26.49923357	         82.17145221	         -8.61576061	         89.02941034	         58.78755566	        -10.89808965	        -45.43041431	         67.33058587	         43.65146118	         -3.79882805	         30.28839682	          2.15532515	          0.02478621	
          5.23000000	         38.75617627	         61.05953813	        106.22493485	        108.31884259	         66.66549320	         47.26933087	        268.09779288	         35.24749249	         41.99036609	         12.35467149	         93.46639777	        311.10431235	        170.53339756	        419.13104934	         83.27144482	         18.96618787	        317.04130072	        119.27348809	        190.02472774	        234.98598997	          5.67989048	         11.56118860	          2.25466490	         12.45948417	         60.98432437	          4.42023499	         10.36598413	         21.61098653	        251.58695147	        386.69010285	         39.35815595	        272.77243019	         47.10258163	       3139.50507150	          2.38243224	        323.11109091	        736.38236309	        774.16404353	       5730.05108628	       1439.56338318	          7.25138022	         12.44903001	          2.44219576	          0.42450399	          4.88861003	          7.06419284	          6.38283737	        216.55703583	         44.45080090	         11.98683227	          5.57730280	          8.86008451	         12.48871728	         90.00553185	         91.07170157	        134.11384561	          2.28110446	         35.33476903	        103.82621420	         74.04987534	          3.99071527	         27.48976745	          0.33660422	          2.62954453	         30.77039464	         11.03765970	         43.49466384	          0.00030752	         47.10083447	         94.19580740	        223.72463681	         60.21079081	          5.06124722	          0.15980873	         54.96923422	         80.93328661	         25.90793209	          6.92239838	         22.45569110	         11.76333138	         49.16342301	         94.76624585	        -39.28476251	        104.10228350	          5.68205371	         28.40941717	        -19.76698316	         87.80721527	         41.21176110	         -1.33601559	         54.67472749	          1.41166316	         -0.11766466	
